<mxfile host="app.diagrams.net" modified="2024-05-17T09:04:10.335Z" agent="Mozilla/5.0 (Windows NT 10.0; Win64; x64) AppleWebKit/537.36 (KHTML, like Gecko) Chrome/124.0.0.0 Safari/537.36" etag="wd42-IBChaZnvDICjsTe" version="24.4.3" type="device">
  <diagram id="C5RBs43oDa-KdzZeNtuy" name="Page-1">
    <mxGraphModel dx="1213" dy="861" grid="1" gridSize="10" guides="1" tooltips="1" connect="1" arrows="1" fold="1" page="1" pageScale="1" pageWidth="827" pageHeight="1169" math="0" shadow="0">
      <root>
        <mxCell id="WIyWlLk6GJQsqaUBKTNV-0" />
        <mxCell id="WIyWlLk6GJQsqaUBKTNV-1" parent="WIyWlLk6GJQsqaUBKTNV-0" />
        <mxCell id="Np7RUgS1rIojiF4Cg4dr-5" value="" style="edgeStyle=orthogonalEdgeStyle;rounded=0;orthogonalLoop=1;jettySize=auto;html=1;" edge="1" parent="WIyWlLk6GJQsqaUBKTNV-1" source="Np7RUgS1rIojiF4Cg4dr-0" target="Np7RUgS1rIojiF4Cg4dr-3">
          <mxGeometry relative="1" as="geometry" />
        </mxCell>
        <mxCell id="Np7RUgS1rIojiF4Cg4dr-0" value="Start" style="strokeWidth=2;html=1;shape=mxgraph.flowchart.start_1;whiteSpace=wrap;" vertex="1" parent="WIyWlLk6GJQsqaUBKTNV-1">
          <mxGeometry x="560" y="44" width="100" height="60" as="geometry" />
        </mxCell>
        <mxCell id="Np7RUgS1rIojiF4Cg4dr-1" value="Stop" style="strokeWidth=2;html=1;shape=mxgraph.flowchart.terminator;whiteSpace=wrap;" vertex="1" parent="WIyWlLk6GJQsqaUBKTNV-1">
          <mxGeometry x="560" y="720" width="100" height="60" as="geometry" />
        </mxCell>
        <mxCell id="Np7RUgS1rIojiF4Cg4dr-7" value="" style="edgeStyle=orthogonalEdgeStyle;rounded=0;orthogonalLoop=1;jettySize=auto;html=1;" edge="1" parent="WIyWlLk6GJQsqaUBKTNV-1" source="Np7RUgS1rIojiF4Cg4dr-2">
          <mxGeometry relative="1" as="geometry">
            <mxPoint x="610" y="600" as="targetPoint" />
          </mxGeometry>
        </mxCell>
        <mxCell id="Np7RUgS1rIojiF4Cg4dr-16" value="" style="edgeStyle=orthogonalEdgeStyle;rounded=0;orthogonalLoop=1;jettySize=auto;html=1;" edge="1" parent="WIyWlLk6GJQsqaUBKTNV-1" source="Np7RUgS1rIojiF4Cg4dr-2" target="Np7RUgS1rIojiF4Cg4dr-15">
          <mxGeometry relative="1" as="geometry" />
        </mxCell>
        <mxCell id="Np7RUgS1rIojiF4Cg4dr-2" value="is Condition&amp;nbsp;&lt;div&gt;True ?&lt;/div&gt;" style="strokeWidth=2;html=1;shape=mxgraph.flowchart.decision;whiteSpace=wrap;" vertex="1" parent="WIyWlLk6GJQsqaUBKTNV-1">
          <mxGeometry x="560" y="447" width="100" height="100" as="geometry" />
        </mxCell>
        <mxCell id="Np7RUgS1rIojiF4Cg4dr-10" value="" style="edgeStyle=orthogonalEdgeStyle;rounded=0;orthogonalLoop=1;jettySize=auto;html=1;" edge="1" parent="WIyWlLk6GJQsqaUBKTNV-1" source="Np7RUgS1rIojiF4Cg4dr-3" target="Np7RUgS1rIojiF4Cg4dr-9">
          <mxGeometry relative="1" as="geometry" />
        </mxCell>
        <mxCell id="Np7RUgS1rIojiF4Cg4dr-3" value="configure access from anywhere in PA&amp;nbsp;" style="rounded=1;whiteSpace=wrap;html=1;absoluteArcSize=1;arcSize=14;strokeWidth=2;" vertex="1" parent="WIyWlLk6GJQsqaUBKTNV-1">
          <mxGeometry x="560" y="164" width="100" height="96" as="geometry" />
        </mxCell>
        <mxCell id="Np7RUgS1rIojiF4Cg4dr-11" value="" style="edgeStyle=orthogonalEdgeStyle;rounded=0;orthogonalLoop=1;jettySize=auto;html=1;" edge="1" parent="WIyWlLk6GJQsqaUBKTNV-1" source="Np7RUgS1rIojiF4Cg4dr-9" target="Np7RUgS1rIojiF4Cg4dr-2">
          <mxGeometry relative="1" as="geometry" />
        </mxCell>
        <mxCell id="Np7RUgS1rIojiF4Cg4dr-9" value="Certbot certification&lt;div&gt;renewal&lt;/div&gt;" style="shape=parallelogram;html=1;strokeWidth=2;perimeter=parallelogramPerimeter;whiteSpace=wrap;rounded=1;arcSize=12;size=0.23;" vertex="1" parent="WIyWlLk6GJQsqaUBKTNV-1">
          <mxGeometry x="560" y="320" width="100" height="70" as="geometry" />
        </mxCell>
        <mxCell id="Np7RUgS1rIojiF4Cg4dr-14" value="" style="edgeStyle=orthogonalEdgeStyle;rounded=0;orthogonalLoop=1;jettySize=auto;html=1;" edge="1" parent="WIyWlLk6GJQsqaUBKTNV-1" source="Np7RUgS1rIojiF4Cg4dr-12" target="Np7RUgS1rIojiF4Cg4dr-1">
          <mxGeometry relative="1" as="geometry" />
        </mxCell>
        <mxCell id="Np7RUgS1rIojiF4Cg4dr-12" value="Configure access only from IN" style="rounded=0;whiteSpace=wrap;html=1;strokeWidth=2;" vertex="1" parent="WIyWlLk6GJQsqaUBKTNV-1">
          <mxGeometry x="550" y="602" width="120" height="60" as="geometry" />
        </mxCell>
        <mxCell id="Np7RUgS1rIojiF4Cg4dr-13" value="True" style="text;html=1;align=center;verticalAlign=middle;whiteSpace=wrap;rounded=0;" vertex="1" parent="WIyWlLk6GJQsqaUBKTNV-1">
          <mxGeometry x="620" y="560" width="60" height="30" as="geometry" />
        </mxCell>
        <mxCell id="Np7RUgS1rIojiF4Cg4dr-19" style="edgeStyle=orthogonalEdgeStyle;rounded=0;orthogonalLoop=1;jettySize=auto;html=1;" edge="1" parent="WIyWlLk6GJQsqaUBKTNV-1">
          <mxGeometry relative="1" as="geometry">
            <mxPoint x="610" y="140" as="targetPoint" />
            <mxPoint x="360" y="473" as="sourcePoint" />
            <Array as="points">
              <mxPoint x="360" y="130" />
              <mxPoint x="611" y="130" />
            </Array>
          </mxGeometry>
        </mxCell>
        <mxCell id="Np7RUgS1rIojiF4Cg4dr-15" value="Engineer Check&amp;nbsp;" style="html=1;strokeWidth=2;shape=manualInput;whiteSpace=wrap;rounded=1;size=26;arcSize=11;" vertex="1" parent="WIyWlLk6GJQsqaUBKTNV-1">
          <mxGeometry x="310" y="453" width="100" height="87" as="geometry" />
        </mxCell>
        <mxCell id="Np7RUgS1rIojiF4Cg4dr-17" value="False" style="text;html=1;align=center;verticalAlign=middle;whiteSpace=wrap;rounded=0;" vertex="1" parent="WIyWlLk6GJQsqaUBKTNV-1">
          <mxGeometry x="440" y="500" width="60" height="30" as="geometry" />
        </mxCell>
        <mxCell id="Np7RUgS1rIojiF4Cg4dr-20" value="" style="endArrow=classic;html=1;rounded=0;" edge="1" parent="WIyWlLk6GJQsqaUBKTNV-1">
          <mxGeometry width="50" height="50" relative="1" as="geometry">
            <mxPoint x="360" y="330" as="sourcePoint" />
            <mxPoint x="360" y="250" as="targetPoint" />
          </mxGeometry>
        </mxCell>
        <mxCell id="Np7RUgS1rIojiF4Cg4dr-21" value="Re-run play book" style="text;html=1;align=center;verticalAlign=middle;whiteSpace=wrap;rounded=0;" vertex="1" parent="WIyWlLk6GJQsqaUBKTNV-1">
          <mxGeometry x="280" y="260" width="60" height="30" as="geometry" />
        </mxCell>
      </root>
    </mxGraphModel>
  </diagram>
</mxfile>
